<svg width="320" height="64" viewBox="0 0 320 64" fill="none" xmlns="http://www.w3.org/2000/svg">
<g clip-path="url(#clip0_11365_229108)">
<path d="M0 0H64V64H0V0ZM36.557 30.9532H26.6998V17.373H42.4329V24.1666H45.957V14.0478H18.043V17.3765H22.4639V46.8398H18.043V50.1686H32.3978V46.8398H26.6998V34.2925H40.0567L36.557 30.9532ZM45.2138 49.3695C45.7159 48.8204 45.9827 48.0964 45.957 47.3527C45.9704 46.9698 45.9066 46.588 45.7693 46.2302C45.6319 45.8725 45.424 45.546 45.1578 45.2703C44.8916 44.9946 44.5726 44.7754 44.2198 44.6257C43.8671 44.4759 43.4878 44.3987 43.1046 44.3987C42.7213 44.3987 42.342 44.4759 41.9893 44.6257C41.6365 44.7754 41.3176 44.9946 41.0514 45.2703C40.7852 45.546 40.5772 45.8725 40.4399 46.2302C40.3026 46.588 40.2387 46.9698 40.2521 47.3527C40.2221 48.0968 40.4867 48.8227 40.9883 49.373C41.5771 49.8795 42.3279 50.158 43.1046 50.158C43.8812 50.158 44.6321 49.8795 45.2208 49.373L45.2138 49.3695Z" fill="#FBFDFD"/>
</g>
<g clip-path="url(#clip1_11365_229108)">
<path d="M111.037 34.4497H98.0268V46.6712H103.585V49.9144H89.6006V46.6712H93.9274V17.9715H89.6204V14.7332H116.818V24.5915H113.391V17.9715H98.0614V31.2164H107.664L111.037 34.4497Z" fill="#FBFDFD"/>
<path d="M126.597 50.656C124.551 50.6941 122.534 50.1727 120.762 49.1481C119.06 48.1456 117.672 46.6864 116.757 44.9358C115.805 42.9489 115.311 40.7737 115.311 38.5705C115.311 36.3673 115.805 34.1921 116.757 32.2052C117.658 30.4555 119.028 28.9905 120.713 27.9731C122.513 26.9277 124.566 26.399 126.647 26.4455C128.48 26.3974 130.294 26.8358 131.903 27.7161C133.328 28.5262 134.492 29.727 135.256 31.1768V27.192H142.337V30.2968H138.955V46.8195H142.337V49.9243H135.414V45.7021C134.647 47.2353 133.442 48.5067 131.953 49.3557C130.315 50.258 128.466 50.7069 126.597 50.656V50.656ZM127.29 47.2743C129.792 47.2743 131.77 46.4652 133.224 44.8469C134.677 43.2285 135.424 41.1224 135.464 38.5285C135.464 35.9346 134.73 33.835 133.263 32.2299C131.796 30.6247 129.818 29.8222 127.329 29.8222C124.827 29.8222 122.836 30.6247 121.356 32.2299C119.875 33.835 119.135 35.9346 119.135 38.5285C119.135 41.1191 119.875 43.2252 121.356 44.8469C122.836 46.4685 124.814 47.2776 127.29 47.2743Z" fill="#FBFDFD"/>
<path d="M147.614 49.9144V46.8096H150.997V30.2869H147.614V27.1821H154.7V46.8096H158.083V49.9144H147.614ZM152.154 21.1654C151.776 21.1905 151.397 21.1356 151.042 21.0044C150.686 20.8732 150.363 20.6686 150.092 20.404C149.6 19.8656 149.343 19.1545 149.375 18.4264C149.375 17.6895 149.667 16.9828 150.189 16.4617C150.71 15.9407 151.417 15.6479 152.154 15.6479C152.891 15.6479 153.598 15.9407 154.119 16.4617C154.64 16.9828 154.933 17.6895 154.933 18.4264C154.962 19.1541 154.705 19.8642 154.216 20.404C153.945 20.6686 153.621 20.8732 153.266 21.0044C152.911 21.1356 152.532 21.1905 152.154 21.1654V21.1654Z" fill="#FBFDFD"/>
<path d="M176.321 26.8162C177.109 26.7994 177.895 26.9233 178.64 27.1821V30.5637C178.318 30.4612 177.987 30.3916 177.651 30.3561C177.26 30.3105 176.867 30.2873 176.474 30.2869C174.516 30.2219 172.607 30.9082 171.138 32.2051C169.717 33.484 169.007 35.3446 169.007 37.7869V46.8096H174.239V49.9144H161.921V46.8096H165.303V30.2869H161.921V27.1821H168.844V31.4438C169.358 30.0087 170.366 28.8031 171.687 28.0423C173.09 27.2177 174.693 26.7937 176.321 26.8162V26.8162Z" fill="#FBFDFD"/>
<path d="M192.911 49.9144L185.642 30.2869H182.907V27.1821H193.603V30.2276H189.44L194.805 45.3313L200.739 27.1821H203.795L209.729 45.2868L215.133 30.2276H211.014V27.1722H221.295V30.277H218.541L211.271 49.9045H207.751L202.123 32.927L196.427 49.9144H192.911Z" fill="#FBFDFD"/>
<path d="M234.161 50.656C231.935 50.7085 229.733 50.1821 227.772 49.1283C225.98 48.1368 224.504 46.6596 223.514 44.8666C222.51 42.9039 221.986 40.7307 221.986 38.526C221.986 36.3213 222.51 34.1482 223.514 32.1854C224.5 30.3956 225.977 28.9253 227.772 27.9484C229.753 26.96 231.937 26.4455 234.151 26.4455C236.365 26.4455 238.549 26.96 240.53 27.9484C242.311 28.9389 243.774 30.4152 244.748 32.2052C245.752 34.1679 246.276 36.3411 246.276 38.5458C246.276 40.7505 245.752 42.9236 244.748 44.8864C243.762 46.6757 242.294 48.1523 240.51 49.1481C238.56 50.1928 236.372 50.7124 234.161 50.656V50.656ZM234.161 47.2743C236.693 47.2743 238.715 46.48 240.228 44.8914C241.741 43.3027 242.498 41.1817 242.498 38.5285C242.498 35.8917 241.741 33.7839 240.228 32.2052C238.715 30.6264 236.693 29.8321 234.161 29.8222C231.599 29.8222 229.562 30.6165 228.049 32.2052C226.536 33.7938 225.781 35.9016 225.784 38.5285C225.784 41.1653 226.539 43.2862 228.049 44.8914C229.559 46.4965 231.596 47.2908 234.161 47.2743Z" fill="#FBFDFD"/>
<path d="M264.444 26.8162C265.231 26.7994 266.014 26.9233 266.758 27.1821V30.5638C266.436 30.4603 266.105 30.3907 265.769 30.3561C265.377 30.3105 264.982 30.2873 264.587 30.2869C262.63 30.2232 260.724 30.9094 259.256 32.2051C257.839 33.484 257.13 35.3446 257.13 37.7869V46.8096H262.362V49.9144H250.044V46.8096H253.426V30.2869H250.044V27.1821H256.967V31.4438C257.48 30.0066 258.49 28.8002 259.815 28.0423C261.217 27.2186 262.818 26.7946 264.444 26.8162Z" fill="#FBFDFD"/>
<path d="M280.509 50.656C278.428 50.7024 276.374 50.1738 274.575 49.1283C272.879 48.1115 271.507 46.6335 270.619 44.8666C269.641 42.8994 269.156 40.7245 269.204 38.5285C269.157 36.3339 269.653 34.1616 270.648 32.2052C271.548 30.4545 272.918 28.989 274.604 27.9731C276.404 26.9267 278.457 26.398 280.538 26.4455C282.368 26.3919 284.179 26.8216 285.79 27.6913C287.221 28.4946 288.399 29.6812 289.192 31.1175V16.4438H284.934V13.344H292.896V46.8096H296.273V49.9144H289.35V45.7021C288.584 47.2364 287.38 48.5082 285.889 49.3557C284.244 50.2628 282.386 50.7118 280.509 50.656V50.656ZM281.201 47.2743C283.703 47.2743 285.681 46.4652 287.135 44.8468C288.589 43.2285 289.321 41.1224 289.33 38.5285C289.33 35.9346 288.599 33.835 287.135 32.2299C285.671 30.6247 283.693 29.8222 281.201 29.8222C278.702 29.8222 276.711 30.6247 275.227 32.2299C273.744 33.835 273.004 35.9346 273.007 38.5285C273.007 41.1191 273.747 43.2252 275.227 44.8468C276.708 46.4685 278.699 47.2776 281.201 47.2743Z" fill="#FBFDFD"/>
<path d="M311.716 50.656C310.101 50.6772 308.497 50.385 306.993 49.7957C305.686 49.3193 304.566 48.4354 303.799 47.2743V49.9144H300.832V42.0436H303.844V42.4144C303.828 43.1588 303.994 43.8958 304.329 44.5611C304.663 45.2264 305.155 45.7997 305.762 46.2312C307.048 47.22 308.785 47.7061 310.974 47.6896C312.32 47.7556 313.66 47.4693 314.861 46.8591C315.321 46.6057 315.7 46.2277 315.954 45.7685C316.209 45.3094 316.329 44.7877 316.3 44.2635C316.328 43.739 316.217 43.2164 315.977 42.7491C315.737 42.2818 315.378 41.8865 314.935 41.6036C314.02 41.0005 312.463 40.5308 310.232 40.1946L308.195 39.8683C305.541 39.4662 303.659 38.6554 302.548 37.4359C301.448 36.2494 300.851 34.6829 300.881 33.0654C300.837 32.124 301.025 31.1861 301.429 30.3343C301.832 29.4825 302.439 28.743 303.196 28.1808C304.739 27.0239 306.698 26.4455 309.075 26.4455C310.536 26.4108 311.988 26.689 313.333 27.2612C314.436 27.7166 315.384 28.4784 316.067 29.4563V27.1871H318.985V34.9194H316.067V34.425C316.099 33.7223 315.967 33.0218 315.681 32.3791C315.396 31.7363 314.964 31.169 314.421 30.722C313.33 29.8123 311.795 29.3558 309.817 29.3525C308.515 29.3074 307.225 29.6203 306.089 30.2573C305.612 30.5351 305.221 30.9393 304.959 31.4252C304.697 31.9112 304.575 32.46 304.605 33.011C304.584 33.4863 304.691 33.9586 304.914 34.3786C305.138 34.7986 305.47 35.1509 305.876 35.399C306.726 35.9362 308.2 36.3746 310.297 36.7141L312.893 37.1343C315.454 37.5661 317.282 38.367 318.377 39.537C319.494 40.7612 320.085 42.3752 320.023 44.0311C320.023 46.2229 319.275 47.8709 317.778 48.9751C316.282 50.0792 314.261 50.6395 311.716 50.656Z" fill="#FBFDFD"/>
</g>
<defs>
<clipPath id="clip0_11365_229108">
<rect width="64" height="64" fill="white"/>
</clipPath>
<clipPath id="clip1_11365_229108">
<rect width="230.4" height="37.312" fill="white" transform="translate(89.6006 13.344)"/>
</clipPath>
</defs>
</svg>
