<svg width="240" height="48" viewBox="0 0 240 48" fill="none" xmlns="http://www.w3.org/2000/svg">
<g clip-path="url(#clip0_11365_229093)">
<rect width="48" height="48" fill="white"/>
<path d="M0 0H48V48H0V0ZM27.4177 23.2149H20.0249V13.0298H31.8247V18.125H34.4678V10.5358H13.5322V13.0324H16.8479V35.1299H13.5322V37.6264H24.2983V35.1299H20.0249V25.7193H30.0425L27.4177 23.2149ZM33.9104 37.0272C34.2869 36.6153 34.487 36.0723 34.4678 35.5146C34.4778 35.2273 34.4299 34.941 34.3269 34.6727C34.2239 34.4043 34.068 34.1595 33.8683 33.9527C33.6687 33.746 33.4294 33.5816 33.1649 33.4693C32.9003 33.3569 32.6158 33.2991 32.3284 33.2991C32.041 33.2991 31.7565 33.3569 31.492 33.4693C31.2274 33.5816 30.9882 33.746 30.7885 33.9527C30.5889 34.1595 30.4329 34.4043 30.3299 34.6727C30.2269 34.941 30.179 35.2273 30.1891 35.5146C30.1666 36.0726 30.365 36.617 30.7412 37.0298C31.1828 37.4096 31.746 37.6185 32.3284 37.6185C32.9109 37.6185 33.474 37.4096 33.9156 37.0298L33.9104 37.0272Z" fill="#05404E"/>
</g>
<g clip-path="url(#clip1_11365_229093)">
<path d="M83.2775 25.8373H73.5198V35.0034H77.6884V37.4358H67.2002V35.0034H70.4453V13.4786H67.215V11.0499H87.6129V18.4436H85.0428V13.4786H73.5458V23.4123H80.7481L83.2775 25.8373Z" fill="#05404E"/>
<path d="M94.9475 37.992C93.4129 38.0205 91.8997 37.6295 90.5712 36.8611C89.2944 36.1092 88.2537 35.0148 87.5672 33.7019C86.8531 32.2117 86.4824 30.5803 86.4824 28.9279C86.4824 27.2755 86.8531 25.6441 87.5672 24.1539C88.2432 22.8417 89.2703 21.7428 90.5341 20.9799C91.8839 20.1957 93.4239 19.7993 94.9846 19.8341C96.3598 19.7981 97.7201 20.1269 98.9269 20.787C99.9957 21.3946 100.868 22.2953 101.441 23.3826V20.394H106.752V22.7226H104.216V35.1146H106.752V37.4432H101.56V34.2766C100.985 35.4265 100.081 36.3801 98.964 37.0168C97.7359 37.6935 96.3493 38.0302 94.9475 37.992V37.992ZM95.4667 35.4558C97.3433 35.4558 98.8268 34.8489 99.9172 33.6351C101.008 32.4214 101.568 30.8418 101.597 28.8964C101.597 26.9509 101.047 25.3763 99.9468 24.1724C98.8466 22.9686 97.3631 22.3666 95.4964 22.3666C93.6198 22.3666 92.1264 22.9686 91.0163 24.1724C89.9061 25.3763 89.351 26.9509 89.351 28.8964C89.351 30.8393 89.9061 32.4189 91.0163 33.6351C92.1264 34.8514 93.6099 35.4582 95.4667 35.4558Z" fill="#05404E"/>
<path d="M110.711 37.4358V35.1072H113.248V22.7152H110.711V20.3866H116.026V35.1072H118.562V37.4358H110.711ZM114.116 15.874C113.832 15.8928 113.548 15.8517 113.281 15.7533C113.015 15.6549 112.772 15.5015 112.569 15.303C112.2 14.8992 112.007 14.3659 112.031 13.8198C112.031 13.2671 112.251 12.7371 112.642 12.3463C113.033 11.9555 113.563 11.7359 114.116 11.7359C114.668 11.7359 115.198 11.9555 115.589 12.3463C115.98 12.7371 116.2 13.2671 116.2 13.8198C116.222 14.3656 116.029 14.8982 115.662 15.303C115.459 15.5015 115.216 15.6549 114.95 15.7533C114.683 15.8517 114.399 15.8928 114.116 15.874V15.874Z" fill="#05404E"/>
<path d="M132.24 20.1122C132.832 20.0996 133.421 20.1925 133.98 20.3866V22.9228C133.738 22.8459 133.49 22.7937 133.238 22.7671C132.945 22.7328 132.65 22.7155 132.355 22.7152C130.886 22.6664 129.455 23.1812 128.353 24.1539C127.288 25.113 126.755 26.5084 126.755 28.3402V35.1072H130.679V37.4358H121.44V35.1072H123.977V22.7152H121.44V20.3866H126.633V23.5828C127.018 22.5065 127.774 21.6024 128.765 21.0318C129.818 20.4133 131.02 20.0953 132.24 20.1122V20.1122Z" fill="#05404E"/>
<path d="M144.683 37.4358L139.232 22.7152H137.181V20.3866H145.203V22.6707H142.08L146.104 33.9985L150.554 20.3866H152.846L157.297 33.9651L161.35 22.6707H158.261V20.3792H165.971V22.7078H163.906L158.454 37.4284H155.813L151.593 24.6952L147.32 37.4358H144.683Z" fill="#05404E"/>
<path d="M175.621 37.992C173.952 38.0314 172.3 37.6366 170.829 36.8463C169.485 36.1026 168.378 34.9947 167.636 33.65C166.883 32.1779 166.49 30.548 166.49 28.8945C166.49 27.241 166.883 25.6111 167.636 24.139C168.375 22.7967 169.483 21.694 170.829 20.9613C172.315 20.22 173.953 19.8341 175.614 19.8341C177.274 19.8341 178.912 20.22 180.398 20.9613C181.734 21.7042 182.831 22.8114 183.561 24.1539C184.315 25.626 184.707 27.2558 184.707 28.9094C184.707 30.5629 184.315 32.1927 183.561 33.6648C182.822 35.0068 181.721 36.1143 180.383 36.8611C178.921 37.6446 177.28 38.0343 175.621 37.992V37.992ZM175.621 35.4558C177.52 35.4558 179.037 34.86 180.172 33.6685C181.307 32.477 181.874 30.8863 181.874 28.8964C181.874 26.9188 181.307 25.338 180.172 24.1539C179.037 22.9698 177.52 22.3741 175.621 22.3666C173.7 22.3666 172.172 22.9624 171.037 24.1539C169.902 25.3454 169.336 26.9262 169.339 28.8964C169.339 30.874 169.905 32.4647 171.037 33.6685C172.17 34.8724 173.698 35.4681 175.621 35.4558Z" fill="#05404E"/>
<path d="M198.333 20.1122C198.923 20.0995 199.511 20.1925 200.069 20.3866V22.9228C199.828 22.8452 199.579 22.793 199.327 22.7671C199.033 22.7328 198.737 22.7155 198.441 22.7152C196.973 22.6674 195.543 23.1821 194.443 24.1539C193.379 25.113 192.848 26.5084 192.848 28.3402V35.1072H196.772V37.4358H187.533V35.1072H190.07V22.7152H187.533V20.3866H192.725V23.5828C193.11 22.505 193.868 21.6002 194.862 21.0318C195.913 20.414 197.114 20.096 198.333 20.1122Z" fill="#05404E"/>
<path d="M210.382 37.992C208.821 38.0268 207.281 37.6303 205.932 36.8462C204.659 36.0836 203.63 34.9751 202.965 33.65C202.232 32.1745 201.868 30.5434 201.904 28.8964C201.868 27.2504 202.24 25.6212 202.987 24.1539C203.662 22.8409 204.689 21.7418 205.954 20.9799C207.303 20.195 208.843 19.7985 210.404 19.8341C211.776 19.7939 213.135 20.1162 214.343 20.7685C215.416 21.3709 216.3 22.2609 216.894 23.3381V12.3329H213.701V10.008H219.672V35.1072H222.205V37.4358H217.013V34.2766C216.439 35.4273 215.535 36.3811 214.417 37.0168C213.184 37.6971 211.79 38.0339 210.382 37.992V37.992ZM210.901 35.4557C212.778 35.4557 214.261 34.8489 215.352 33.6351C216.442 32.4214 216.991 30.8418 216.998 28.8964C216.998 26.9509 216.449 25.3763 215.352 24.1724C214.254 22.9686 212.77 22.3666 210.901 22.3666C209.027 22.3666 207.534 22.9686 206.421 24.1724C205.308 25.3763 204.753 26.9509 204.756 28.8964C204.756 30.8393 205.311 32.4189 206.421 33.6351C207.531 34.8513 209.025 35.4582 210.901 35.4557Z" fill="#05404E"/>
<path d="M233.787 37.992C232.576 38.0079 231.373 37.7888 230.245 37.3468C229.264 36.9895 228.425 36.3265 227.849 35.4557V37.4358H225.624V31.5327H227.883V31.8108C227.871 32.3691 227.996 32.9219 228.246 33.4208C228.497 33.9198 228.866 34.3498 229.322 34.6734C230.286 35.415 231.589 35.7796 233.231 35.7672C234.24 35.8167 235.245 35.6019 236.146 35.1443C236.491 34.9543 236.775 34.6708 236.966 34.3264C237.157 33.982 237.247 33.5908 237.225 33.1976C237.246 32.8043 237.163 32.4123 236.983 32.0618C236.803 31.7113 236.533 31.4149 236.201 31.2027C235.515 30.7503 234.347 30.3981 232.674 30.1459L231.146 29.9012C229.156 29.5996 227.744 28.9915 226.911 28.0769C226.086 27.187 225.638 26.0122 225.661 24.7991C225.628 24.093 225.769 23.3895 226.072 22.7507C226.374 22.1119 226.829 21.5572 227.397 21.1356C228.554 20.2679 230.024 19.8341 231.806 19.8341C232.902 19.8081 233.991 20.0167 235 20.4459C235.827 20.7874 236.538 21.3588 237.051 22.0922V20.3903H239.239V26.1895H237.051V25.8187C237.075 25.2917 236.975 24.7664 236.761 24.2843C236.547 23.8022 236.223 23.3767 235.816 23.0415C234.997 22.3592 233.846 22.0169 232.363 22.0144C231.386 21.9805 230.419 22.2152 229.566 22.6929C229.209 22.9013 228.915 23.2045 228.719 23.5689C228.523 23.9334 228.431 24.345 228.454 24.7583C228.438 25.1147 228.518 25.4689 228.686 25.7839C228.853 26.0989 229.102 26.3632 229.407 26.5492C230.045 26.9521 231.15 27.2809 232.722 27.5355L234.67 27.8507C236.591 28.1745 237.962 28.7752 238.783 29.6528C239.62 30.5709 240.064 31.7814 240.018 33.0233C240.018 34.6672 239.456 35.9032 238.334 36.7313C237.211 37.5594 235.696 37.9796 233.787 37.992Z" fill="#05404E"/>
</g>
<defs>
<clipPath id="clip0_11365_229093">
<rect width="48" height="48" fill="white"/>
</clipPath>
<clipPath id="clip1_11365_229093">
<rect width="172.8" height="27.984" fill="white" transform="translate(67.2002 10.008)"/>
</clipPath>
</defs>
</svg>
