<svg width="32" height="32" viewBox="0 0 32 32" fill="none" xmlns="http://www.w3.org/2000/svg">
<g clip-path="url(#clip0_11367_229124)">
<path d="M18.9163 13.7263C17.5467 13.7263 16.9351 14.4791 16.5929 15.0076V13.9094H14.0137C14.0472 14.6363 14.0137 21.6696 14.0137 21.6696H16.5929V17.3342C16.5929 17.1028 16.6077 16.8701 16.6773 16.7045C16.8642 16.2405 17.2883 15.7603 18.0011 15.7603C18.9343 15.7603 19.3075 16.4718 19.3075 17.5159V21.6677H21.8867H21.8874V17.2175C21.8861 14.8355 20.6132 13.7263 18.9163 13.7263V13.7263ZM16.591 15.0346H16.5749C16.58 15.0256 16.5878 15.0172 16.591 15.0082V15.0346Z" fill="#B2B8BE"/>
<path d="M10.0039 13.9092H12.5831V21.6694H10.0039V13.9092Z" fill="#B2B8BE"/>
<path d="M16 0C7.17764 0 0 7.17764 0 16C0 24.8217 7.17764 32 16 32C24.8217 32 32 24.8217 32 16C32 7.17764 24.823 0 16 0ZM24.4847 23.2369C24.4847 23.9175 23.9201 24.4679 23.2221 24.4679H8.66898C7.97293 24.4679 7.40772 23.9175 7.40772 23.2369V8.5143C7.40772 7.83437 7.97293 7.28333 8.66898 7.28333H23.2221C23.9194 7.28333 24.4847 7.83501 24.4847 8.5143V23.2369Z" fill="#B2B8BE"/>
<path d="M11.3107 10.168C10.429 10.168 9.85156 10.7467 9.85156 11.5085C9.85156 12.2529 10.4116 12.849 11.2765 12.849H11.2933C12.193 12.849 12.753 12.2529 12.753 11.5085C12.7356 10.7474 12.1936 10.168 11.3107 10.168Z" fill="#B2B8BE"/>
</g>
<defs>
<clipPath id="clip0_11367_229124">
<rect width="32" height="32" fill="white"/>
</clipPath>
</defs>
</svg>
