<svg width="32" height="33" viewBox="0 0 32 33" fill="none" xmlns="http://www.w3.org/2000/svg">
<path d="M0 6.85205C0 3.53834 2.68629 0.852051 6 0.852051H26C29.3137 0.852051 32 3.53834 32 6.85205V26.8521C32 30.1658 29.3137 32.8521 26 32.8521H6C2.68629 32.8521 0 30.1658 0 26.8521V6.85205Z" fill="#6841A7"/>
<path fill-rule="evenodd" clip-rule="evenodd" d="M16.671 6.3693C16.671 6.80363 16.3189 7.15572 15.8846 7.15572C15.4503 7.15572 15.0982 6.80363 15.0982 6.3693C15.0982 5.93498 15.4503 5.58289 15.8846 5.58289C16.3189 5.58289 16.671 5.93498 16.671 6.3693ZM16.5819 8.18896C17.3135 7.90846 17.8328 7.19953 17.8328 6.3693C17.8328 5.29336 16.9606 4.42114 15.8846 4.42114C14.8087 4.42114 13.9365 5.29336 13.9365 6.3693C13.9365 7.19972 14.456 7.90879 15.1878 8.18916V9.46205L10.9722 11.8959C10.5685 12.129 10.3198 12.5597 10.3198 13.0259V17.8172L9.36235 18.4156C9.05455 18.212 8.68555 18.0934 8.28887 18.0934C7.21293 18.0934 6.3407 18.9656 6.3407 20.0416C6.3407 21.1175 7.21293 21.9897 8.28887 21.9897C9.36481 21.9897 10.237 21.1175 10.237 20.0416C10.237 19.8724 10.2155 19.7082 10.1749 19.5517L10.9542 19.0646C10.9602 19.0682 10.9662 19.0717 10.9722 19.0752L15.2325 21.5349C15.6362 21.7679 16.1335 21.7679 16.5372 21.5349L20.7975 19.0752C20.8417 19.0497 20.8841 19.0218 20.9245 18.9917L21.8963 19.4573C21.891 19.5156 21.8883 19.5746 21.8883 19.6343C21.8883 20.7102 22.7605 21.5824 23.8365 21.5824C24.9124 21.5824 25.7846 20.7102 25.7846 19.6343C25.7846 18.5583 24.9124 17.6861 23.8365 17.6861C23.3247 17.6861 22.859 17.8834 22.5114 18.2062L21.4499 17.6976L21.4499 13.0259C21.4499 12.5597 21.2012 12.129 20.7975 11.8959L16.5819 9.46207V8.18896ZM15.7015 10.7753H16.0683L19.2899 12.6353L15.8696 14.4042L12.3062 12.7355L15.7015 10.7753ZM11.7139 13.9976V17.8937L15.1878 19.8993V15.6243L11.7139 13.9976ZM16.5819 19.8993L20.0558 17.8937L20.0558 13.8086L16.5819 15.6053V19.8993ZM15.304 25.4745L15.304 24.4781C15.2979 24.4747 15.2919 24.4712 15.2858 24.4677L11.8699 22.4759C11.5927 22.3143 11.4991 21.9586 11.6607 21.6815C11.8223 21.4044 12.1779 21.3107 12.4551 21.4723L15.871 23.4641C15.8794 23.469 15.8897 23.469 15.898 23.4641L19.314 21.4723C19.5911 21.3107 19.9468 21.4044 20.1084 21.6815C20.27 21.9586 20.1763 22.3143 19.8992 22.4759L16.4832 24.4677L16.4754 24.4722C16.4722 24.474 16.469 24.4759 16.4658 24.4777V25.4747C17.2579 25.7219 17.8328 26.4612 17.8328 27.3347C17.8328 28.4107 16.9606 29.2829 15.8846 29.2829C14.8087 29.2829 13.9365 28.4107 13.9365 27.3347C13.9365 26.461 14.5116 25.7216 15.304 25.4745ZM7.85953 11.4717C7.85953 11.463 7.85962 11.4544 7.85981 11.4458L6.99776 10.9481C6.38761 11.5103 5.46007 11.6385 4.70365 11.2017C3.77186 10.6638 3.45261 9.4723 3.99058 8.54051C4.52855 7.60872 5.72002 7.28947 6.65182 7.82744C7.40858 8.26435 7.76131 9.13232 7.57893 9.94215L8.4496 10.4448L11.8699 8.4505C12.147 8.2889 12.5027 8.38257 12.6643 8.6597C12.8259 8.93684 12.7322 9.2925 12.4551 9.4541L9.03458 11.4485C9.02634 11.4533 9.02127 11.4622 9.02127 11.4717L9.02127 15.4632C9.02127 15.784 8.76121 16.0441 8.4404 16.0441C8.11959 16.0441 7.85952 15.784 7.85952 15.4632L7.85953 11.4717ZM25.0017 10.9482L23.9095 11.5788L23.9095 15.4632C23.9095 15.784 23.6494 16.0441 23.3286 16.0441C23.0078 16.0441 22.7478 15.784 22.7478 15.4632V11.4717C22.7478 11.4622 22.7427 11.4533 22.7345 11.4485L19.314 9.4541C19.0369 9.2925 18.9432 8.93684 19.1048 8.6597C19.2664 8.38257 19.622 8.2889 19.8992 8.4505L23.3197 10.4449C23.357 10.4667 23.3929 10.4904 23.4272 10.5157L24.4209 9.94207C24.2388 9.13244 24.5916 8.26483 25.3481 7.82804C26.2799 7.29007 27.4714 7.60933 28.0094 8.54112C28.5473 9.47291 28.2281 10.6644 27.2963 11.2024C26.5397 11.6392 25.6118 11.5108 25.0017 10.9482ZM8.28887 20.828C8.72319 20.828 9.07528 20.4759 9.07528 20.0416C9.07528 19.6072 8.72319 19.2551 8.28887 19.2551C7.85454 19.2551 7.50245 19.6072 7.50245 20.0416C7.50245 20.4759 7.85454 20.828 8.28887 20.828ZM4.99668 9.12139C4.77952 9.49752 4.90839 9.97849 5.28453 10.1956C5.66066 10.4128 6.14163 10.2839 6.35879 9.9078C6.57595 9.53166 6.44708 9.0507 6.07094 8.83354C5.69481 8.61638 5.21384 8.74525 4.99668 9.12139ZM16.671 27.3347C16.671 27.769 16.3189 28.1211 15.8846 28.1211C15.4503 28.1211 15.0982 27.769 15.0982 27.3347C15.0982 26.9004 15.4503 26.5483 15.8846 26.5483C16.3189 26.5483 16.671 26.9004 16.671 27.3347ZM23.8365 20.4207C24.2708 20.4207 24.6229 20.0686 24.6229 19.6343C24.6229 19.1999 24.2708 18.8478 23.8365 18.8478C23.4022 18.8478 23.0501 19.1999 23.0501 19.6343C23.0501 20.0686 23.4022 20.4207 23.8365 20.4207ZM25.929 8.83414C26.3052 8.61698 26.7861 8.74586 27.0033 9.12199C27.2204 9.49813 27.0916 9.97909 26.7154 10.1963C26.3393 10.4134 25.8583 10.2845 25.6412 9.90841C25.424 9.53227 25.5529 9.05131 25.929 8.83414Z" fill="#EFE4FF"/>
</svg>
