<svg width="586" height="181" viewBox="0 0 586 181" fill="none" xmlns="http://www.w3.org/2000/svg">
<path fill-rule="evenodd" clip-rule="evenodd" d="M94.2785 20.7115C94.2785 23.607 91.9313 25.9542 89.0358 25.9542C86.1403 25.9542 83.793 23.607 83.793 20.7115C83.793 17.816 86.1403 15.4687 89.0358 15.4687C91.9313 15.4687 94.2785 17.816 94.2785 20.7115ZM93.6845 32.8425C98.5613 30.9725 102.023 26.2463 102.023 20.7115C102.023 13.5386 96.2087 7.72375 89.0358 7.72375C81.8628 7.72375 76.048 13.5386 76.048 20.7115C76.048 26.2476 79.5118 30.9747 84.3905 32.8438V41.3297L56.2862 57.5557C53.595 59.1095 51.9371 61.981 51.9371 65.0886V97.0304L45.554 101.02C43.502 99.6624 41.042 98.872 38.3974 98.872C31.2245 98.872 25.4097 104.687 25.4097 111.86C25.4097 119.033 31.2245 124.847 38.3974 124.847C45.5704 124.847 51.3852 119.033 51.3852 111.86C51.3852 110.732 51.2414 109.637 50.9711 108.594L56.1666 105.347C56.2062 105.371 56.2461 105.394 56.2862 105.417L84.6882 121.815C87.3795 123.369 90.6952 123.369 93.3864 121.815L121.788 105.417C122.083 105.247 122.366 105.061 122.635 104.861L129.113 107.965C129.078 108.353 129.06 108.747 129.06 109.144C129.06 116.317 134.875 122.132 142.048 122.132C149.221 122.132 155.036 116.317 155.036 109.144C155.036 101.972 149.221 96.1567 142.048 96.1567C138.636 96.1567 135.532 97.4723 133.214 99.6239L126.138 96.2335L126.138 65.0886C126.138 61.981 124.48 59.1095 121.788 57.5557L93.6845 41.3299V32.8425ZM87.8147 50.0845H90.26L111.737 62.4844L88.9355 74.2775L65.1795 63.1529L87.8147 50.0845ZM61.2311 71.5665V97.5405L84.3905 110.912V82.4117L61.2311 71.5665ZM93.6845 110.911L116.844 97.5405L116.844 70.3069L93.6845 82.2848V110.911ZM85.165 148.08L85.165 141.437C85.1244 141.414 85.084 141.391 85.0438 141.367L62.2707 128.089C60.4231 127.011 59.7987 124.64 60.876 122.793C61.9533 120.945 64.3244 120.321 66.172 121.398L88.945 134.677C89.0007 134.709 89.0695 134.709 89.1251 134.677L111.898 121.398C113.746 120.321 116.117 120.945 117.194 122.793C118.271 124.64 117.647 127.011 115.799 128.089L93.0263 141.367L92.9746 141.397C92.9531 141.41 92.9315 141.422 92.91 141.434V148.081C98.1906 149.729 102.023 154.657 102.023 160.481C102.023 167.654 96.2087 173.469 89.0357 173.469C81.8628 173.469 76.048 167.654 76.048 160.481C76.048 154.656 79.8825 149.727 85.165 148.08ZM35.5352 54.7274C35.5352 54.6697 35.5358 54.6121 35.537 54.5546L29.7901 51.2366C25.7224 54.9846 19.5388 55.8392 14.496 52.9278C8.2841 49.3413 6.15573 41.3981 9.7422 35.1862C13.3287 28.9743 21.2718 26.8459 27.4838 30.4324C32.5288 33.3451 34.8804 39.1316 33.6645 44.5304L39.4689 47.8816L62.2707 34.5861C64.1183 33.5088 66.4894 34.1332 67.5667 35.9808C68.644 37.8284 68.0196 40.1994 66.172 41.2767L43.3688 54.573C43.3139 54.6051 43.2801 54.6639 43.2801 54.7274L43.2801 81.3373C43.2801 83.476 41.5464 85.2098 39.4076 85.2098C37.2689 85.2098 35.5352 83.476 35.5352 81.3373L35.5352 54.7274ZM149.816 51.2375L142.535 55.4412L142.535 81.3373C142.535 83.4761 140.801 85.2098 138.662 85.2098C136.524 85.2098 134.79 83.4761 134.79 81.3373V54.7274C134.79 54.6639 134.756 54.6051 134.701 54.5731L111.898 41.2767C110.051 40.1994 109.426 37.8284 110.503 35.9808C111.581 34.1332 113.952 33.5088 115.799 34.5861L138.603 47.8824C138.852 48.0276 139.091 48.1853 139.32 48.3543L145.944 44.5299C144.731 39.1324 147.082 33.3483 152.126 30.4364C158.338 26.8499 166.281 28.9783 169.867 35.1902C173.454 41.4022 171.325 49.3453 165.114 52.9318C160.069 55.8441 153.884 54.9881 149.816 51.2375ZM38.3974 117.102C41.2929 117.102 43.6402 114.755 43.6402 111.86C43.6402 108.964 41.2929 106.617 38.3974 106.617C35.5019 106.617 33.1547 108.964 33.1547 111.86C33.1547 114.755 35.5019 117.102 38.3974 117.102ZM16.4495 39.0587C15.0018 41.5662 15.8609 44.7727 18.3685 46.2204C20.8761 47.6682 24.0825 46.809 25.5303 44.3014C26.978 41.7939 26.1188 38.5874 23.6113 37.1397C21.1037 35.6919 17.8973 36.5511 16.4495 39.0587ZM94.2785 160.481C94.2785 163.376 91.9312 165.724 89.0357 165.724C86.1403 165.724 83.793 163.376 83.793 160.481C83.793 157.585 86.1403 155.238 89.0357 155.238C91.9312 155.238 94.2785 157.585 94.2785 160.481ZM142.048 114.387C144.944 114.387 147.291 112.04 147.291 109.144C147.291 106.249 144.944 103.902 142.048 103.902C139.153 103.902 136.805 106.249 136.805 109.144C136.805 112.04 139.153 114.387 142.048 114.387ZM155.998 37.1437C158.506 35.696 161.712 36.5551 163.16 39.0627C164.608 41.5703 163.749 44.7767 161.241 46.2245C158.733 47.6722 155.527 46.813 154.079 44.3055C152.632 41.7979 153.491 38.5915 155.998 37.1437Z" fill="#A873FF"/>
<path fill-rule="evenodd" clip-rule="evenodd" d="M209.408 151.97V48.0264C209.716 48.2876 210.029 48.5639 210.348 48.8557L210.366 48.8723L210.385 48.8887C212.54 50.8041 214.557 53.3227 216.407 56.5119L216.414 56.5253L216.422 56.5386C218.239 59.6087 219.788 63.3194 221.034 67.7133L221.04 67.7366L221.047 67.7598C222.314 72.0022 223.252 76.3396 223.252 81.788V85.9504C223.194 86.0121 223.136 86.0743 223.078 86.1371C220.745 88.6577 217.742 92.8013 217.745 97.8683C217.747 102.935 220.754 107.077 223.09 109.596C224.324 110.927 225.546 111.993 226.457 112.724C226.915 113.093 227.302 113.383 227.583 113.587C227.723 113.689 227.838 113.77 227.922 113.828C227.964 113.858 227.999 113.881 228.025 113.899L228.059 113.922L228.071 113.93L228.078 113.935C228.078 113.935 228.078 113.935 228.167 113.803L228.167 113.805L228.08 113.936L228.212 114.024C228.364 114.842 228.37 115.673 228.223 116.493C227.879 118.417 226.65 120.521 224.016 122.368L226.613 126.072C228.458 124.778 229.896 123.294 230.925 121.691C232.312 123.435 234.248 124.92 236.705 126.03L238.566 121.907C235.635 120.583 234.036 118.744 233.339 116.918C232.941 115.873 232.808 114.757 232.94 113.633L233.005 113.585C233.286 113.381 233.673 113.09 234.13 112.722C235.04 111.989 236.261 110.923 237.494 109.591C239.827 107.07 242.83 102.927 242.828 97.8596C242.825 92.7926 239.818 88.651 237.482 86.1321C237.327 85.9641 237.171 85.8003 237.016 85.6409V81.788C237.016 76.3396 237.391 72.0022 238.657 67.7598C239.969 63.3642 241.586 59.6074 243.478 56.4533C245.412 53.2307 247.449 50.6851 249.563 48.7522C249.848 48.4922 250.126 48.2455 250.399 48.0115V151.97H265.198V29.5961H254.432L253.69 29.9675C247.317 33.1538 241.907 36.9997 237.519 41.5364C234.589 44.5657 232.072 48.1396 229.95 52.2256C227.808 48.1345 225.258 44.5571 222.279 41.5259C217.906 37.0076 212.581 33.1681 206.354 29.9822L205.6 29.5961H194.61V151.97H209.408ZM322.776 96.9501V82.9794H292.552V59.8186C292.552 56.1755 292.947 53.3634 293.623 51.2779C294.287 49.2305 295.238 47.8329 296.369 46.8829L296.374 46.8789L296.379 46.8748C297.676 45.7769 299.384 44.9255 301.625 44.4084C303.989 43.8629 306.886 43.5669 310.357 43.5669H322.673V29.5961H308.183C303.503 29.5961 299.383 30.0259 295.891 30.957L295.881 30.9595L295.872 30.9622C292.511 31.8789 289.559 33.2205 287.123 35.0672C284.826 36.7912 282.975 38.8792 281.62 41.328C280.343 43.5684 279.426 45.9666 278.87 48.5092C278.345 50.9109 278.011 53.4075 277.863 55.9952L277.86 56.0453L277.859 56.0954C277.789 58.5421 277.754 60.9217 277.754 63.2343V151.97H325.26V137.999H292.552V96.9501H322.776ZM388.972 125.474L388.972 125.471C389.042 123.024 389.077 120.644 389.077 118.332V63.2343C389.077 60.9217 389.042 58.5421 388.972 56.0954C388.897 53.4599 388.559 50.9118 387.95 48.458C387.396 45.9495 386.491 43.5819 385.234 41.368C383.934 38.8813 382.064 36.7834 379.708 35.0661C377.316 33.2019 374.35 31.8674 370.949 30.9595C367.52 30.0254 363.464 29.5961 358.855 29.5961H336.188V151.97H358.855C363.469 151.97 367.527 151.54 370.959 150.604L370.985 150.597L371.01 150.59C374.383 149.615 377.314 148.289 379.677 146.522C382.036 144.809 383.922 142.742 385.234 140.301C386.488 138.023 387.397 135.619 387.952 133.096C388.557 130.593 388.897 128.051 388.972 125.474ZM373.208 130.392C372.548 132.429 371.593 133.883 370.431 134.916C369.225 135.919 367.576 136.734 365.342 137.254C363.036 137.736 360.13 137.999 356.578 137.999H350.987V43.5669H356.578C360.127 43.5669 363.012 43.8644 365.29 44.4038L365.299 44.4061L365.309 44.4084C367.546 44.9246 369.194 45.768 370.401 46.8302L370.431 46.8569L370.462 46.8829C371.593 47.8329 372.544 49.2305 373.208 51.2779C373.884 53.3634 374.279 56.1755 374.279 59.8186V121.851C374.279 125.494 373.884 128.306 373.208 130.392ZM439.311 149.174L439.324 149.167L439.336 149.16C442.838 147.25 445.67 144.692 447.738 141.476C449.807 138.365 451.205 134.826 451.972 130.912C452.708 127.157 453.073 123.273 453.073 119.263V29.5961H438.274V122.679C438.274 124.978 438.026 127.113 437.545 129.096C437.08 131.012 436.375 132.614 435.467 133.95C434.634 135.175 433.526 136.176 432.079 136.955C430.851 137.587 429.139 137.999 426.784 137.999C424.285 137.999 422.482 137.551 421.199 136.864C419.749 136.086 418.59 135.079 417.677 133.832C416.764 132.419 416.073 130.826 415.617 129.028C415.197 127.025 414.983 124.911 414.983 122.679V29.5961H400.184V119.263C400.184 123.488 400.584 127.529 401.398 131.377L401.4 131.384L401.401 131.391C402.239 135.273 403.631 138.76 405.628 141.795L405.645 141.821L405.663 141.848C407.782 144.945 410.552 147.419 413.915 149.261L413.944 149.276L413.973 149.291C417.505 151.142 421.692 151.97 426.37 151.97C431.307 151.97 435.685 151.113 439.311 149.174ZM489.537 151.97C493.122 151.97 496.531 151.346 499.73 150.068C502.964 148.805 505.812 147.007 508.232 144.668C510.647 142.333 512.527 139.567 513.876 136.405C515.33 133.16 516.033 129.637 516.033 125.888V112.27C516.033 108.651 515.362 105.213 513.993 101.993C512.699 98.948 510.995 96.0722 508.894 93.3667C506.897 90.7075 504.614 88.2083 502.054 85.8676C499.603 83.6264 497.116 81.4544 494.593 79.3519C492.401 77.5024 490.244 75.6532 488.121 73.8044C486.117 72.0588 484.319 70.261 482.721 68.4129C481.247 66.5633 480.07 64.6817 479.172 62.7697C478.11 60.4245 477.943 58.3714 477.943 55.7819C477.943 53.9581 478.225 52.3515 478.747 50.9284C479.354 49.395 480.151 48.1452 481.116 47.1297L481.145 47.0987L481.174 47.067C482.136 46.0032 483.309 45.1519 484.733 44.5155C486.175 43.9015 487.828 43.5669 489.744 43.5669C491.415 43.5669 492.927 43.8875 494.318 44.5058L494.369 44.5282L494.42 44.549C495.809 45.1148 496.954 45.9178 497.9 46.9635L497.928 46.9952L497.958 47.0262C498.93 48.049 499.731 49.3094 500.339 50.8579L500.347 50.8784L500.356 50.8988C500.922 52.2885 501.234 53.9001 501.234 55.7819V69.107H516.033V55.6784C516.033 52.079 515.369 48.6798 514.002 45.524C512.724 42.3485 510.877 39.5709 508.461 37.2299C506.057 34.8321 503.227 32.9672 500.007 31.63C496.772 30.2576 493.267 29.5961 489.537 29.5961C486.004 29.5961 482.602 30.2262 479.356 31.4929L479.343 31.4983L479.329 31.5038C476.169 32.7679 473.371 34.559 470.967 36.8773C468.527 39.1602 466.613 41.939 465.2 45.1557L465.192 45.1747L465.184 45.1938C463.807 48.4326 463.144 51.9429 463.144 55.6784C463.144 59.7569 463.543 64.0555 465.2 67.8313C466.561 70.9313 468.299 73.8378 470.406 76.5469L470.424 76.5706L470.443 76.594C472.572 79.2361 474.95 81.7227 477.574 84.0549L477.591 84.0707L477.61 84.0864C480.176 86.3064 482.744 88.4918 485.311 90.6429C487.418 92.4104 489.492 94.2117 491.531 96.047C493.468 97.7903 495.159 99.5804 496.614 101.414L496.636 101.443L496.66 101.471C498.137 103.256 499.273 105.062 500.097 106.887C500.852 108.557 501.234 110.339 501.234 112.27V125.784C501.234 127.58 500.927 129.212 500.339 130.708L500.327 130.74L500.315 130.773C499.792 132.184 499.014 133.431 497.961 134.537L497.958 134.54C496.987 135.562 495.79 136.407 494.318 137.06C492.968 137.661 491.361 137.999 489.433 137.999C487.667 137.999 486.111 137.703 484.728 137.15C483.368 136.513 482.217 135.687 481.248 134.674C480.238 133.55 479.432 132.263 478.83 130.791C478.252 129.312 477.943 127.655 477.943 125.784V126.186C480.182 123.633 482.777 119.721 482.775 115.011C482.772 109.944 479.765 105.803 477.43 103.284C476.195 101.952 474.973 100.887 474.063 100.155C473.605 99.7866 473.217 99.4962 472.937 99.2924C472.796 99.1903 472.681 99.1095 472.597 99.0511C472.555 99.0218 472.521 98.9981 472.494 98.9801L472.461 98.9573L472.448 98.9492L472.441 98.9445C472.441 98.9445 472.441 98.9444 472.428 98.964C472.416 98.9814 472.394 99.0144 472.352 99.0769L472.352 99.0746L472.439 98.9432L472.307 98.855C472.155 98.0378 472.149 97.2065 472.296 96.3862C472.641 94.4626 473.869 92.3579 476.503 90.5113L473.906 86.8077C472.062 88.1011 470.623 89.5849 469.594 91.1888C468.207 89.4446 466.271 87.9591 463.814 86.8498L461.953 90.972C464.885 92.296 466.483 94.1351 467.18 95.9609C467.579 97.0063 467.711 98.1222 467.579 99.2469L467.514 99.2943C467.233 99.4983 466.847 99.7889 466.389 100.158C465.479 100.89 464.259 101.956 463.025 103.289C460.692 105.809 457.689 109.953 457.692 115.02C457.694 120.087 460.701 124.228 463.037 126.747C463.073 126.786 463.108 126.824 463.144 126.862V125.888C463.144 129.479 463.77 132.893 465.052 136.096L465.066 136.131L465.08 136.165C466.419 139.316 468.253 142.08 470.592 144.419L470.613 144.44L470.634 144.461C473.027 146.774 475.809 148.596 478.949 149.93L478.963 149.936L478.977 149.942C482.267 151.306 485.8 151.97 489.537 151.97ZM562.642 151.97H577.441V29.5961H556.43C549.498 29.5961 543.687 30.5466 539.319 32.7682C535.25 34.805 532.04 37.5727 529.912 41.1478L529.896 41.1746L529.88 41.2018C527.946 44.5868 526.842 48.3406 526.529 52.4069C526.246 56.081 526.104 59.6903 526.104 63.2343V151.97H540.903V96.9501H562.642V151.97ZM562.642 82.9793H540.903V59.8186C540.903 56.1755 541.297 53.3634 541.974 51.2779C542.638 49.2305 543.589 47.8329 544.72 46.8829L544.725 46.8789L544.73 46.8748C546.027 45.7769 547.735 44.9255 549.976 44.4084C552.336 43.8639 555.265 43.5669 558.811 43.5669H562.642V82.9793ZM470.237 122.663C470.67 122.267 471.131 121.818 471.588 121.324C473.529 119.227 474.8 116.991 474.799 115.014C474.798 113.037 473.525 110.802 471.582 108.706C471.124 108.213 470.663 107.763 470.229 107.368C469.796 107.764 469.336 108.213 468.879 108.707C466.937 110.804 465.666 113.04 465.667 115.017C465.668 116.994 466.941 119.229 468.885 121.325C469.342 121.818 469.803 122.268 470.237 122.663ZM228.931 91.5555C229.389 91.0616 229.849 90.6121 230.282 90.2162C230.716 90.6118 231.177 91.0609 231.634 91.5545C233.578 93.6505 234.851 95.885 234.852 97.8623C234.853 99.8397 233.582 102.075 231.641 104.172C231.184 104.666 230.723 105.116 230.29 105.512C229.856 105.116 229.395 104.667 228.938 104.173C226.994 102.077 225.721 99.8429 225.72 97.8655C225.719 95.8881 226.99 93.6528 228.931 91.5555Z" fill="#262D47"/>
</svg>
