<svg width="586" height="181" viewBox="0 0 586 181" fill="none" xmlns="http://www.w3.org/2000/svg">
<path fill-rule="evenodd" clip-rule="evenodd" d="M94.2785 20.4562C94.2785 23.3517 91.9313 25.699 89.0358 25.699C86.1403 25.699 83.793 23.3517 83.793 20.4562C83.793 17.5607 86.1403 15.2135 89.0358 15.2135C91.9313 15.2135 94.2785 17.5607 94.2785 20.4562ZM93.6845 32.5873C98.5613 30.7173 102.023 25.9911 102.023 20.4562C102.023 13.2833 96.2087 7.46851 89.0358 7.46851C81.8628 7.46851 76.048 13.2833 76.048 20.4562C76.048 25.9924 79.5118 30.7195 84.3905 32.5886V41.0745L56.2862 57.3005C53.595 58.8543 51.9371 61.7258 51.9371 64.8334V96.7752L45.554 100.765C43.502 99.4072 41.042 98.6168 38.3974 98.6168C31.2245 98.6168 25.4097 104.432 25.4097 111.604C25.4097 118.777 31.2245 124.592 38.3974 124.592C45.5704 124.592 51.3852 118.777 51.3852 111.604C51.3852 110.477 51.2414 109.382 50.9711 108.339L56.1666 105.092C56.2062 105.115 56.2461 105.139 56.2862 105.162L84.6882 121.56C87.3795 123.114 90.6952 123.114 93.3864 121.56L121.788 105.162C122.083 104.992 122.366 104.806 122.635 104.606L129.113 107.71C129.078 108.098 129.06 108.492 129.06 108.889C129.06 116.062 134.875 121.877 142.048 121.877C149.221 121.877 155.036 116.062 155.036 108.889C155.036 101.716 149.221 95.9015 142.048 95.9015C138.636 95.9015 135.532 97.2171 133.214 99.3687L126.138 95.9782L126.138 64.8334C126.138 61.7258 124.48 58.8543 121.788 57.3005L93.6845 41.0746V32.5873ZM87.8147 49.8293H90.26L111.737 62.2292L88.9355 74.0223L65.1795 62.8977L87.8147 49.8293ZM61.2311 71.3113V97.2852L84.3905 110.656V82.1565L61.2311 71.3113ZM93.6845 110.656L116.844 97.2852L116.844 70.0516L93.6845 82.0296V110.656ZM85.165 147.824L85.165 141.181C85.1244 141.159 85.084 141.136 85.0438 141.112L62.2707 127.833C60.4231 126.756 59.7987 124.385 60.876 122.537C61.9533 120.69 64.3244 120.065 66.172 121.143L88.945 134.421C89.0007 134.454 89.0695 134.454 89.1251 134.421L111.898 121.143C113.746 120.065 116.117 120.69 117.194 122.537C118.271 124.385 117.647 126.756 115.799 127.833L93.0263 141.112L92.9746 141.142C92.9531 141.154 92.9315 141.167 92.91 141.179V147.825C98.1906 149.474 102.023 154.402 102.023 160.226C102.023 167.398 96.2087 173.213 89.0357 173.213C81.8628 173.213 76.048 167.398 76.048 160.226C76.048 154.401 79.8825 149.471 85.165 147.824ZM35.5352 54.4722C35.5352 54.4145 35.5358 54.3569 35.537 54.2994L29.7901 50.9814C25.7224 54.7293 19.5388 55.5839 14.496 52.6725C8.2841 49.086 6.15573 41.1429 9.7422 34.9309C13.3287 28.719 21.2718 26.5906 27.4838 30.1771C32.5288 33.0899 34.8804 38.8763 33.6645 44.2752L39.4689 47.6263L62.2707 34.3308C64.1183 33.2535 66.4894 33.878 67.5667 35.7255C68.644 37.5731 68.0196 39.9442 66.172 41.0215L43.3688 54.3178C43.3139 54.3498 43.2801 54.4086 43.2801 54.4722L43.2801 81.0821C43.2801 83.2208 41.5464 84.9546 39.4076 84.9546C37.2689 84.9546 35.5352 83.2208 35.5352 81.0821L35.5352 54.4722ZM149.816 50.9822L142.535 55.1859L142.535 81.0821C142.535 83.2208 140.801 84.9546 138.662 84.9546C136.524 84.9546 134.79 83.2208 134.79 81.0821V54.4722C134.79 54.4086 134.756 54.3498 134.701 54.3178L111.898 41.0215C110.051 39.9442 109.426 37.5731 110.503 35.7255C111.581 33.878 113.952 33.2535 115.799 34.3308L138.603 47.6271C138.852 47.7724 139.091 47.9301 139.32 48.0991L145.944 44.2746C144.731 38.8771 147.082 33.0931 152.126 30.1811C158.338 26.5947 166.281 28.723 169.867 34.935C173.454 41.1469 171.325 49.0901 165.114 52.6766C160.069 55.5888 153.884 54.7329 149.816 50.9822ZM38.3974 116.847C41.2929 116.847 43.6402 114.5 43.6402 111.604C43.6402 108.709 41.2929 106.362 38.3974 106.362C35.5019 106.362 33.1547 108.709 33.1547 111.604C33.1547 114.5 35.5019 116.847 38.3974 116.847ZM16.4495 38.8034C15.0018 41.311 15.8609 44.5174 18.3685 45.9652C20.8761 47.4129 24.0825 46.5538 25.5303 44.0462C26.978 41.5386 26.1188 38.3322 23.6113 36.8844C21.1037 35.4367 17.8973 36.2959 16.4495 38.8034ZM94.2785 160.226C94.2785 163.121 91.9312 165.468 89.0357 165.468C86.1403 165.468 83.793 163.121 83.793 160.226C83.793 157.33 86.1403 154.983 89.0357 154.983C91.9312 154.983 94.2785 157.33 94.2785 160.226ZM142.048 114.132C144.944 114.132 147.291 111.785 147.291 108.889C147.291 105.994 144.944 103.646 142.048 103.646C139.153 103.646 136.805 105.994 136.805 108.889C136.805 111.785 139.153 114.132 142.048 114.132ZM155.998 36.8885C158.506 35.4407 161.712 36.2999 163.16 38.8075C164.608 41.315 163.749 44.5215 161.241 45.9692C158.733 47.417 155.527 46.5578 154.079 44.0502C152.632 41.5427 153.491 38.3362 155.998 36.8885Z" fill="#A873FF"/>
<path fill-rule="evenodd" clip-rule="evenodd" d="M209.408 151.715V47.7712C209.716 48.0324 210.029 48.3087 210.348 48.6004L210.366 48.6171L210.385 48.6334C212.54 50.5489 214.557 53.0675 216.407 56.2566L216.414 56.27L216.422 56.2833C218.239 59.3534 219.788 63.0641 221.034 67.4581L221.04 67.4813L221.047 67.5045C222.314 71.747 223.252 76.0844 223.252 81.5327V85.6952C223.194 85.7568 223.136 85.8191 223.078 85.8819C220.745 88.4024 217.742 92.546 217.745 97.613C217.747 102.68 220.754 106.822 223.09 109.34C224.324 110.672 225.546 111.737 226.457 112.469C226.915 112.838 227.302 113.128 227.583 113.332C227.723 113.434 227.838 113.515 227.922 113.573C227.964 113.602 227.999 113.626 228.025 113.644L228.059 113.667L228.071 113.675L228.078 113.68C228.078 113.68 228.078 113.68 228.167 113.547L228.167 113.55L228.08 113.681L228.212 113.769C228.364 114.586 228.37 115.418 228.223 116.238C227.879 118.162 226.65 120.266 224.016 122.113L226.613 125.816C228.458 124.523 229.896 123.039 230.925 121.435C232.312 123.18 234.248 124.665 236.705 125.774L238.566 121.652C235.635 120.328 234.036 118.489 233.339 116.663C232.941 115.618 232.808 114.502 232.94 113.377L233.005 113.33C233.286 113.126 233.673 112.835 234.13 112.466C235.04 111.734 236.261 110.668 237.494 109.335C239.827 106.815 242.83 102.671 242.828 97.6043C242.825 92.5373 239.818 88.3958 237.482 85.8769C237.327 85.7088 237.171 85.5451 237.016 85.3856V81.5327C237.016 76.0844 237.391 71.747 238.657 67.5045C239.969 63.109 241.586 59.3521 243.478 56.198C245.412 52.9755 247.449 50.4298 249.563 48.4969C249.848 48.2369 250.126 47.9902 250.399 47.7563V151.715H265.198V29.3409H254.432L253.69 29.7123C247.317 32.8985 241.907 36.7445 237.519 41.2812C234.589 44.3105 232.072 47.8843 229.95 51.9703C227.808 47.8793 225.258 44.3018 222.279 41.2707C217.906 36.7524 212.581 32.9129 206.354 29.727L205.6 29.3409H194.61V151.715H209.408ZM322.776 96.6948V82.7241H292.552V59.5634C292.552 55.9202 292.947 53.1082 293.623 51.0226C294.287 48.9753 295.238 47.5776 296.369 46.6277L296.374 46.6236L296.379 46.6195C297.676 45.5217 299.384 44.6702 301.625 44.1531C303.989 43.6077 306.886 43.3117 310.357 43.3117H322.673V29.3409H308.183C303.503 29.3409 299.383 29.7706 295.891 30.7017L295.881 30.7043L295.872 30.7069C292.511 31.6236 289.559 32.9653 287.123 34.8119C284.826 36.5359 282.975 38.624 281.62 41.0727C280.343 43.3131 279.426 45.7113 278.87 48.254C278.345 50.6557 278.011 53.1523 277.863 55.74L277.86 55.7901L277.859 55.8402C277.789 58.2868 277.754 60.6665 277.754 62.9791V151.715H325.26V137.744H292.552V96.6948H322.776ZM388.972 125.218L388.972 125.215C389.042 122.769 389.077 120.389 389.077 118.077V62.9791C389.077 60.6665 389.042 58.2868 388.972 55.8402C388.897 53.2046 388.559 50.6565 387.95 48.2027C387.396 45.6942 386.491 43.3266 385.234 41.1128C383.934 38.626 382.064 36.5281 379.708 34.8109C377.316 32.9467 374.35 31.6121 370.949 30.7042C367.52 29.7701 363.464 29.3409 358.855 29.3409H336.188V151.715H358.855C363.469 151.715 367.527 151.285 370.959 150.349L370.985 150.342L371.01 150.334C374.383 149.36 377.314 148.034 379.677 146.267C382.036 144.554 383.922 142.486 385.234 140.046C386.488 137.768 387.397 135.363 387.952 132.841C388.557 130.338 388.897 127.796 388.972 125.218ZM373.208 130.137C372.548 132.173 371.593 133.628 370.431 134.661C369.225 135.664 367.576 136.479 365.342 136.998C363.036 137.481 360.13 137.744 356.578 137.744H350.987V43.3117H356.578C360.127 43.3117 363.012 43.6092 365.29 44.1485L365.299 44.1509L365.309 44.1531C367.546 44.6694 369.194 45.5128 370.401 46.5749L370.431 46.6017L370.462 46.6277C371.593 47.5776 372.544 48.9753 373.208 51.0226C373.884 53.1082 374.279 55.9202 374.279 59.5634V121.596C374.279 125.239 373.884 128.051 373.208 130.137ZM439.311 148.918L439.324 148.911L439.336 148.905C442.838 146.995 445.67 144.437 447.738 141.221C449.807 138.11 451.205 134.571 451.972 130.657C452.708 126.902 453.073 123.017 453.073 119.008V29.3409H438.274V122.424C438.274 124.722 438.026 126.858 437.545 128.84C437.08 130.757 436.375 132.359 435.467 133.694C434.634 134.92 433.526 135.921 432.079 136.7C430.851 137.332 429.139 137.744 426.784 137.744C424.285 137.744 422.482 137.296 421.199 136.608C419.749 135.831 418.59 134.824 417.677 133.577C416.764 132.163 416.073 130.57 415.617 128.773C415.197 126.77 414.983 124.656 414.983 122.424V29.3409H400.184V119.008C400.184 123.233 400.584 127.274 401.398 131.122L401.4 131.129L401.401 131.135C402.239 135.018 403.631 138.505 405.628 141.539L405.645 141.566L405.663 141.592C407.782 144.69 410.552 147.163 413.915 149.005L413.944 149.021L413.973 149.036C417.505 150.886 421.692 151.715 426.37 151.715C431.307 151.715 435.685 150.858 439.311 148.918ZM489.537 151.715C493.122 151.715 496.531 151.09 499.73 149.813C502.964 148.549 505.812 146.752 508.232 144.412C510.647 142.078 512.527 139.312 513.876 136.15C515.33 132.904 516.033 129.382 516.033 125.633V112.015C516.033 108.396 515.362 104.958 513.993 101.737C512.699 98.6928 510.995 95.8169 508.894 93.1115C506.897 90.4522 504.614 87.9531 502.054 85.6123C499.603 83.3711 497.116 81.1992 494.593 79.0966C492.401 77.2471 490.244 75.398 488.121 73.5492C486.117 71.8035 484.319 70.0058 482.721 68.1577C481.247 66.3081 480.07 64.4265 479.172 62.5144C478.11 60.1692 477.943 58.1162 477.943 55.5266C477.943 53.7028 478.225 52.0962 478.747 50.6731C479.354 49.1397 480.151 47.89 481.116 46.8745L481.145 46.8435L481.174 46.8117C482.136 45.7479 483.309 44.8967 484.733 44.2603C486.175 43.6463 487.828 43.3117 489.744 43.3117C491.415 43.3117 492.927 43.6322 494.318 44.2505L494.369 44.2729L494.42 44.2937C495.809 44.8596 496.954 45.6625 497.9 46.7082L497.928 46.74L497.958 46.771C498.93 47.7937 499.731 49.0541 500.339 50.6026L500.347 50.6232L500.356 50.6436C500.922 52.0333 501.234 53.6449 501.234 55.5266V68.8518H516.033V55.4231C516.033 51.8237 515.369 48.4245 514.002 45.2688C512.724 42.0932 510.877 39.3156 508.461 36.9747C506.057 34.5769 503.227 32.7119 500.007 31.3747C496.772 30.0023 493.267 29.3409 489.537 29.3409C486.004 29.3409 482.602 29.9709 479.356 31.2377L479.343 31.2431L479.329 31.2486C476.169 32.5127 473.371 34.3037 470.967 36.622C468.527 38.905 466.613 41.6838 465.2 44.9004L465.192 44.9195L465.184 44.9386C463.807 48.1773 463.144 51.6877 463.144 55.4231C463.144 59.5016 463.543 63.8002 465.2 67.5761C466.561 70.6761 468.299 73.5826 470.406 76.2917L470.424 76.3154L470.443 76.3388C472.572 78.9808 474.95 81.4675 477.574 83.7996L477.591 83.8155L477.61 83.8311C480.176 86.0511 482.744 88.2366 485.311 90.3877C487.418 92.1552 489.492 93.9565 491.531 95.7917C493.468 97.5351 495.159 99.3251 496.614 101.159L496.636 101.188L496.66 101.216C498.137 103.001 499.273 104.807 500.097 106.631C500.852 108.302 501.234 110.084 501.234 112.015V125.529C501.234 127.325 500.927 128.956 500.339 130.453L500.327 130.485L500.315 130.518C499.792 131.929 499.014 133.176 497.961 134.281L497.958 134.285C496.987 135.306 495.79 136.151 494.318 136.805C492.968 137.405 491.361 137.744 489.433 137.744C487.667 137.744 486.111 137.447 484.728 136.895C483.368 136.257 482.217 135.431 481.248 134.418C480.238 133.295 479.432 132.008 478.83 130.536C478.252 129.057 477.943 127.4 477.943 125.529V125.93C480.182 123.378 482.777 119.466 482.775 114.756C482.772 109.689 479.765 105.547 477.43 103.028C476.195 101.697 474.973 100.632 474.063 99.8998C473.605 99.5313 473.217 99.241 472.937 99.0371C472.796 98.9351 472.681 98.8543 472.597 98.7958C472.555 98.7666 472.521 98.7429 472.494 98.7249L472.461 98.7021L472.448 98.6939L472.441 98.6892C472.441 98.6892 472.441 98.6892 472.428 98.7087C472.416 98.7262 472.394 98.7592 472.352 98.8216L472.352 98.8193L472.439 98.6879L472.307 98.5998C472.155 97.7825 472.149 96.9513 472.296 96.131C472.641 94.2074 473.869 92.1027 476.503 90.256L473.906 86.5525C472.062 87.8458 470.623 89.3297 469.594 90.9336C468.207 89.1894 466.271 87.7039 463.814 86.5945L461.953 90.7168C464.885 92.0407 466.483 93.8799 467.18 95.7057C467.579 96.7511 467.711 97.867 467.579 98.9916L467.514 99.039C467.233 99.243 466.847 99.5337 466.389 99.9024C465.479 100.635 464.259 101.701 463.025 103.033C460.692 105.554 457.689 109.698 457.692 114.765C457.694 119.832 460.701 123.973 463.037 126.492C463.073 126.531 463.108 126.569 463.144 126.607V125.633C463.144 129.224 463.77 132.637 465.052 135.841L465.066 135.875L465.08 135.91C466.419 139.06 468.253 141.825 470.592 144.163L470.613 144.185L470.634 144.205C473.027 146.518 475.809 148.34 478.949 149.675L478.963 149.681L478.977 149.687C482.267 151.051 485.8 151.715 489.537 151.715ZM562.642 151.715H577.441V29.3409H556.43C549.498 29.3409 543.687 30.2913 539.319 32.5129C535.25 34.5497 532.04 37.3174 529.912 40.8925L529.896 40.9194L529.88 40.9465C527.946 44.3315 526.842 48.0854 526.529 52.1516C526.246 55.8258 526.104 59.4351 526.104 62.9791V151.715H540.903V96.6948H562.642V151.715ZM562.642 82.724H540.903V59.5634C540.903 55.9202 541.297 53.1082 541.974 51.0226C542.638 48.9753 543.589 47.5776 544.72 46.6277L544.725 46.6236L544.73 46.6195C546.027 45.5217 547.735 44.6702 549.976 44.1531C552.336 43.6086 555.265 43.3117 558.811 43.3117H562.642V82.724ZM470.237 122.408C470.67 122.012 471.131 121.563 471.588 121.069C473.529 118.971 474.8 116.736 474.799 114.759C474.798 112.781 473.525 110.547 471.582 108.451C471.124 107.957 470.663 107.508 470.229 107.113C469.796 107.508 469.336 107.958 468.879 108.452C466.937 110.549 465.666 112.784 465.667 114.762C465.668 116.739 466.941 118.974 468.885 121.07C469.342 121.563 469.803 122.012 470.237 122.408ZM228.931 91.3002C229.389 90.8063 229.849 90.3569 230.282 89.961C230.716 90.3566 231.177 90.8057 231.634 91.2993C233.578 93.3952 234.851 95.6297 234.852 97.6071C234.853 99.5844 233.582 101.82 231.641 103.917C231.184 104.411 230.723 104.86 230.29 105.256C229.856 104.861 229.395 104.412 228.938 103.918C226.994 101.822 225.721 99.5876 225.72 97.6103C225.719 95.6329 226.99 93.3975 228.931 91.3002Z" fill="white"/>
</svg>
